# xmcd CD database file
#
# Track frame offsets:
#	300
#	14575
#	29378
#	42612
#	57550
#	69808
#	86449
#	99740
#	112968
#	127208
#	139550
#	151360
#	162340
#	175330
#	184031
#	197270
#
# Disc length: 2792 seconds
#
# Revision: 0
# Processed by: cddbd v1.4PL0 Copyright (c) Steve Scherf et al.
# Submitted via: Feurio! 1.65.3ß - http://www.feurio.com
#
DISCID=db0ae410
DTITLE=Chris LeDoux - Chris LeDoux and Thirty Dollar Cowboy
DYEAR=2001
DGENRE=country
TTITLE0=They Couldn't Understand My Cowboy Songs
TTITLE1=It Ain't The Years, It's The Miles
TTITLE2=The Greatest Prize
TTITLE3=Call Of The Wild
TTITLE4=Thirty Dollar Cowboy
TTITLE5=Montana Rodeo
TTITLE6=The Last Sunset
TTITLE7=A Cowboy's Got To Ride
TTITLE8=Ballad Of Will Rogers
TTITLE9=Take Me Back To Old Wyoming
TTITLE10=Born To Follow Rodeo
TTITLE11=Wyoming Girl
TTITLE12=The Yellow Stud
TTITLE13=Copenhagen
TTITLE14=Bareback Jack
TTITLE15=Bull Rider
EXTD=Chris LeDoux, (c)1979 and 1983  American Cowboy Songs Inc.\r\n
EXTT0=Songwriter: Chris LeDoux, (c)1983 American Cowboy Songs Inc.\r\n
EXTT1=Songwriter: Chris LeDoux, (c)1983 American Cowboy Songs Inc.\r\n
EXTT2=Songwriter: Chris LeDoux, (c)1983 American Cowboy Songs Inc.\r\n
EXTT3=Songwriter: Chris LeDoux, (c)1983 American Cowboy Songs Inc.\r\n
EXTT4=Songwriter: Chris LeDoux, (c)1983 American Cowboy Songs Inc.\r\n
EXTT5=Songwriter: Chris LeDoux, (c)1983 American Cowboy Songs Inc.\r\n
EXTT6=Songwriter: Chris LeDoux, (c)1983 American Cowboy Songs Inc.\r\n
EXTT7=Songwriter: Chris LeDoux, (c)1983 American Cowboy Songs Inc.\r\n
EXTT8=Songwriter: Chris LeDoux, (c)1983 American Cowboy Songs Inc.\r\n
EXTT9=Songwriter: Chris LeDoux, (c)1983 American Cowboy Songs Inc.\r\n
EXTT10=Songwriter: Chris LeDoux, (c)1979 American Cowboy Songs Inc.\r\n
EXTT11=Songwriter: Chris LeDoux, (c)1979 American Cowboy Songs Inc.\r\n
EXTT12=Songwriter: Chris LeDoux, (c)1979 American Cowboy Songs Inc.\r\n
EXTT13=Songwriter: Chris LeDoux, (c)1979 American Cowboy Songs Inc.\r\n
EXTT14=Songwriter: Chris LeDoux, (c)1979 American Cowboy Songs Inc.\r\n
EXTT15=Songwriter: Chris LeDoux, (c)1979 American Cowboy Songs Inc.\r\n
PLAYORDER=
